<?xml version="1.0" standalone="no"?>
<!DOCTYPE svg PUBLIC "-//W3C//DTD SVG 20010904//EN"
 "http://www.w3.org/TR/2001/REC-SVG-20010904/DTD/svg10.dtd">
<svg version="1.0" xmlns="http://www.w3.org/2000/svg"
 width="512.000000pt" height="512.000000pt" viewBox="0 0 512.000000 512.000000"
 preserveAspectRatio="xMidYMid meet">
<metadata>
Created by potrace 1.16, written by Peter Selinger 2001-2019
</metadata>
<g transform="translate(0.000000,512.000000) scale(0.100000,-0.100000)"
fill="#000000" stroke="none">
<path d="M1810 5097 c-25 -13 -58 -42 -75 -66 l-30 -43 -3 -599 -2 -599 -146
0 c-159 0 -182 -6 -227 -60 -38 -45 -47 -89 -47 -236 0 -118 2 -134 21 -158
16 -21 29 -26 63 -26 69 0 75 13 78 175 l3 140 443 3 442 2 0 -455 0 -455
-445 0 -445 0 0 144 c0 138 -1 146 -22 160 -23 17 -85 21 -104 8 -27 -18 -34
-56 -34 -181 l0 -130 -287 -3 c-287 -3 -288 -3 -343 -29 -116 -55 -197 -161
-220 -290 -16 -85 -8 -2083 8 -2129 37 -110 133 -210 237 -249 l56 -21 1842 2
1842 3 57 27 c112 52 195 159 217 282 15 79 14 388 0 419 -21 47 -80 60 -123
26 l-26 -20 0 -183 c0 -205 -10 -257 -60 -318 -16 -20 -51 -47 -77 -60 -47
-23 -52 -23 -440 -26 l-392 -3 -3 488 -4 488 -27 90 c-90 297 -281 523 -548
649 -155 73 -236 90 -429 91 -141 0 -177 -4 -249 -23 -358 -97 -618 -350 -728
-707 l-27 -90 -4 -493 -3 -493 -392 3 c-388 3 -393 3 -440 26 -59 30 -103 82
-122 146 -22 74 -22 1998 0 2072 18 62 63 116 118 143 l43 21 1802 0 1802 0
45 -21 c25 -12 59 -38 76 -58 59 -71 59 -72 59 -777 l0 -643 26 -20 c43 -34
102 -21 123 26 15 32 15 1257 1 1333 -24 126 -108 237 -218 288 l-57 27 -287
3 -288 3 0 452 c0 280 -4 466 -10 489 -6 21 -22 51 -37 68 -45 54 -68 60 -228
60 l-145 0 0 588 0 589 -23 44 c-16 29 -40 54 -72 74 -42 26 -60 30 -129 33
-69 2 -88 -1 -126 -21 -25 -13 -58 -42 -75 -66 l-30 -43 -3 -599 -2 -599 -400
0 -400 0 0 588 0 589 -23 44 c-16 29 -40 54 -72 74 -42 26 -60 30 -129 33 -69
2 -88 -1 -126 -21z m164 -148 l26 -20 0 -570 0 -569 -70 0 -70 0 0 569 0 570
26 20 c15 12 34 21 44 21 10 0 29 -9 44 -21z m1249 10 c12 -7 25 -17 29 -23 4
-6 8 -266 8 -578 l0 -568 -70 0 -70 0 0 569 0 570 26 20 c30 24 46 26 77 10z
m-593 -1784 l0 -455 -70 0 -70 0 0 455 0 455 70 0 70 0 0 -455z m1048 -2 l2
-453 -445 0 -445 0 0 455 0 455 443 -2 442 -3 3 -452z m-903 -1398 c91 -25
233 -97 314 -161 141 -110 251 -282 297 -462 24 -93 24 -103 24 -548 l0 -454
-850 0 -851 0 3 478 c4 536 3 522 82 687 117 245 355 427 618 475 75 13 291 4
363 -15z"/>
<path d="M2500 1380 c-19 -19 -20 -33 -20 -236 0 -119 4 -223 10 -233 16 -31
65 -46 100 -31 17 7 35 21 40 31 6 10 10 114 10 232 0 210 0 214 -23 235 -30
29 -89 30 -117 2z"/>
<path d="M2250 1197 c-35 -18 -97 -103 -121 -167 -68 -180 -28 -373 105 -506
208 -207 558 -171 715 75 104 161 97 378 -14 530 -64 87 -120 101 -165 44 -28
-36 -25 -64 11 -109 52 -64 80 -135 80 -203 1 -127 -57 -221 -175 -284 -59
-31 -193 -31 -252 0 -118 63 -176 157 -175 284 0 68 28 139 80 204 26 32 31
46 27 70 -12 56 -68 87 -116 62z"/>
<path d="M1145 4663 c-63 -8 -173 -37 -238 -64 -104 -43 -184 -96 -271 -179
-177 -169 -271 -365 -283 -590 -5 -91 -3 -108 11 -123 43 -42 118 -28 135 27
5 17 12 63 14 101 7 89 46 212 94 295 57 99 200 236 298 287 104 53 196 81
298 89 99 8 127 27 127 84 0 55 -32 80 -101 79 -30 -1 -67 -4 -84 -6z"/>
<path d="M3818 4650 c-22 -17 -28 -30 -28 -61 0 -60 21 -75 122 -82 105 -8
198 -36 303 -90 98 -51 241 -188 298 -287 48 -83 87 -206 94 -295 2 -38 9 -84
14 -101 17 -55 92 -69 135 -27 14 15 16 32 11 123 -11 222 -106 421 -283 590
-154 147 -340 230 -554 246 -78 6 -87 4 -112 -16z"/>
<path d="M1136 4284 c-236 -57 -416 -278 -416 -510 0 -72 20 -98 76 -98 53 0
74 28 84 113 24 187 169 330 354 348 55 5 70 10 86 31 27 34 25 78 -5 107 -28
29 -84 32 -179 9z"/>
<path d="M3805 4275 c-30 -29 -32 -73 -5 -107 16 -21 31 -26 86 -31 185 -18
330 -161 354 -348 10 -85 31 -113 84 -113 56 0 76 26 76 98 0 235 -181 454
-421 511 -97 22 -145 20 -174 -10z"/>
</g>
</svg>
