<?xml version="1.0" standalone="no"?>
<!DOCTYPE svg PUBLIC "-//W3C//DTD SVG 20010904//EN"
 "http://www.w3.org/TR/2001/REC-SVG-20010904/DTD/svg10.dtd">
<svg version="1.0" xmlns="http://www.w3.org/2000/svg"
 width="450.000000pt" height="378.000000pt" viewBox="0 0 450.000000 378.000000"
 preserveAspectRatio="xMidYMid meet">
<metadata>
Created by potrace 1.16, written by Peter Selinger 2001-2019
</metadata>
<g transform="translate(0.000000,378.000000) scale(0.100000,-0.100000)"
fill="#000000" stroke="none">
<path d="M1905 3350 c-727 -49 -1300 -232 -1524 -486 -129 -147 -145 -338 -40
-490 16 -23 29 -49 29 -57 0 -8 16 -47 37 -87 153 -306 752 -574 1453 -650 52
-6 187 -13 300 -17 861 -26 1738 276 1933 666 20 41 37 79 37 86 0 7 16 39 35
71 152 251 32 498 -330 683 -248 127 -630 222 -1075 267 -176 18 -676 26 -855
14z m650 -415 c403 -18 836 -110 1101 -235 280 -131 377 -268 291 -410 -166
-274 -755 -506 -1421 -560 -318 -25 -718 0 -1018 65 -40 9 -84 18 -98 21 -34
7 -63 16 -220 70 -437 150 -711 377 -661 546 64 215 539 410 1181 484 244 29
500 34 845 19z"/>
<path d="M1118 1510 c-16 -10 -332 -357 -376 -414 -45 -58 -13 -126 61 -126
34 0 45 10 232 217 180 200 195 219 195 254 0 59 -62 97 -112 69z"/>
<path d="M3296 1499 c-20 -16 -26 -29 -26 -58 0 -35 15 -54 195 -254 191 -212
197 -217 235 -217 30 0 43 6 59 26 41 53 35 64 -173 295 -107 119 -202 219
-211 223 -29 11 -51 7 -79 -15z"/>
<path d="M1638 1273 c-22 -25 -33 -50 -137 -286 -50 -115 -91 -217 -91 -227 0
-26 36 -67 64 -72 55 -11 78 12 130 133 28 63 76 173 108 246 32 72 58 141 58
153 0 55 -96 94 -132 53z"/>
<path d="M2755 1266 c-14 -14 -25 -35 -25 -46 0 -32 199 -481 226 -509 31 -33
81 -31 112 4 12 14 22 35 22 45 0 23 -193 466 -219 500 -26 36 -83 39 -116 6z"/>
<path d="M2195 1184 l-25 -27 0 -254 0 -254 25 -24 c32 -33 78 -33 110 0 l25
24 0 254 0 254 -26 27 c-35 34 -77 34 -109 0z"/>
</g>
</svg>
