<svg width="745" height="730" xmlns="http://www.w3.org/2000/svg" xmlns:xlink="http://www.w3.org/1999/xlink" overflow="hidden"><defs><clipPath id="clip0"><rect x="270" y="-5" width="745" height="730"/></clipPath><clipPath id="clip1"><rect x="340" y="30" width="330" height="330"/></clipPath><clipPath id="clip2"><rect x="340" y="30" width="330" height="330"/></clipPath><clipPath id="clip3"><rect x="340" y="30" width="330" height="330"/></clipPath><clipPath id="clip4"><rect x="307" y="310" width="397" height="397"/></clipPath><clipPath id="clip5"><rect x="307" y="310" width="398" height="398"/></clipPath><clipPath id="clip6"><rect x="307" y="310" width="398" height="398"/></clipPath></defs><g clip-path="url(#clip0)" transform="translate(-270 5)"><path d="M274 119.002C274 53.2792 327.279 0 393.002 0L868.998 0C934.721-2.29164e-14 988 53.2792 988 119.002L988 600.998C988 666.721 934.721 720 868.998 720L393.002 720C327.279 720 274 666.721 274 600.998Z" stroke="#000000" stroke-width="8" stroke-miterlimit="8" fill="none" fill-rule="evenodd"/><g clip-path="url(#clip1)"><g clip-path="url(#clip2)"><g clip-path="url(#clip3)"><path d="M476.042 261.035 462.809 201.464C462.232 198.867 459.66 197.227 457.063 197.807 454.467 198.383 452.83 200.956 453.406 203.551L466.639 263.123C467.138 265.368 469.128 266.896 471.336 266.896 471.682 266.896 472.033 266.858 472.385 266.78 474.981 266.203 476.618 263.631 476.042 261.035Z"/><path d="M498.369 261.724 493.96 202.152C493.763 199.5 491.463 197.515 488.801 197.705 486.149 197.902 484.158 200.211 484.355 202.864L488.765 262.435C488.953 264.966 491.064 266.895 493.562 266.895 493.682 266.895 493.802 266.891 493.923 266.882 496.575 266.686 498.566 264.377 498.369 261.724Z"/><path d="M520.555 197.705C517.904 197.515 515.593 199.5 515.397 202.152L510.986 261.723C510.789 264.376 512.78 266.685 515.433 266.882 515.554 266.891 515.674 266.894 515.793 266.894 518.291 266.894 520.403 264.966 520.59 262.434L525.001 202.863C525.198 200.211 523.207 197.901 520.555 197.705Z"/><path d="M552.279 197.807C549.681 197.228 547.11 198.867 546.533 201.464L533.3 261.035C532.724 263.631 534.361 266.203 536.957 266.78 537.309 266.858 537.661 266.896 538.006 266.896 540.214 266.896 542.204 265.368 542.703 263.123L555.936 203.551C556.512 200.956 554.875 198.383 552.279 197.807Z"/><path d="M505 30C448.331 30 402.227 76.1032 402.227 132.772 402.227 143.429 403.859 153.944 407.078 164.034 407.085 164.065 407.099 164.095 407.107 164.127 407.113 164.149 407.119 164.172 407.125 164.195 407.139 164.246 407.15 164.297 407.166 164.347 407.197 164.447 407.234 164.546 407.272 164.645 407.293 164.702 407.313 164.758 407.337 164.814 407.349 164.842 407.357 164.87 407.37 164.899 408.447 167.316 409.511 169.715 410.565 172.105 427.68 210.872 442.121 247.01 448.469 288.823 449.481 295.489 453.913 300.793 459.833 303.078L459.833 338.588C459.833 350.395 469.438 360 481.244 360L528.755 360C540.561 360 550.166 350.395 550.166 338.588L550.166 303.078C556.086 300.793 560.518 295.489 561.53 288.823 567.874 247.037 582.299 210.921 599.399 172.185 600.465 169.77 601.541 167.344 602.63 164.899 602.712 164.717 602.777 164.533 602.834 164.347 602.85 164.297 602.861 164.246 602.875 164.195 602.881 164.172 602.888 164.148 602.893 164.125 606.131 154.008 607.773 143.462 607.773 132.772 607.772 76.1032 561.669 30 505 30ZM540.535 332.31 503.386 332.31C500.727 332.31 498.571 334.466 498.571 337.125 498.571 339.784 500.727 341.94 503.386 341.94L540.042 341.94C538.594 346.806 534.085 350.367 528.755 350.367L481.244 350.367C475.915 350.367 471.406 346.806 469.957 341.94L480.977 341.94C483.637 341.94 485.793 339.784 485.793 337.125 485.793 334.466 483.637 332.31 480.977 332.31L469.464 332.31 469.464 321.823 480.977 321.823C483.637 321.823 485.793 319.667 485.793 317.007 485.793 314.347 483.637 312.192 480.977 312.192L469.464 312.192 469.464 304.298 540.535 304.298 540.535 312.192 503.384 312.192C500.725 312.192 498.569 314.348 498.569 317.007 498.569 319.667 500.725 321.823 503.384 321.823L540.535 321.823 540.535 332.31ZM590.315 168.915C590.267 169.023 590.218 169.134 590.17 169.243 590.167 169.249 590.165 169.255 590.163 169.262 572.965 208.277 558.474 244.793 552.008 287.378 551.431 291.181 548.498 294.038 544.825 294.571 544.787 294.575 544.75 294.574 544.712 294.58 544.496 294.609 544.304 294.629 544.125 294.643 543.945 294.654 543.766 294.668 543.583 294.668L466.417 294.668C466.235 294.668 466.056 294.654 465.876 294.643 465.696 294.629 465.504 294.608 465.288 294.58 465.252 294.574 465.215 294.575 465.178 294.571 461.503 294.038 458.57 291.182 457.992 287.378 451.526 244.795 437.035 208.278 419.837 169.262 419.835 169.255 419.833 169.249 419.83 169.243 419.782 169.134 419.732 169.023 419.684 168.913 419.613 168.752 419.543 168.591 419.471 168.43 420.236 168.493 421.001 168.545 421.766 168.606 423.386 168.734 425.008 168.856 426.629 168.977 428.733 169.134 430.837 169.286 432.942 169.43 434.573 169.541 436.205 169.649 437.837 169.753 439.939 169.887 442.041 170.014 444.144 170.136 445.776 170.23 447.408 170.323 449.041 170.41 451.158 170.522 453.277 170.625 455.395 170.725 457.009 170.801 458.622 170.878 460.236 170.946 462.397 171.037 464.559 171.117 466.722 171.196 468.29 171.253 469.859 171.313 471.427 171.363 473.69 171.435 475.954 171.492 478.218 171.55 479.683 171.587 481.148 171.63 482.613 171.661 485.125 171.715 487.638 171.75 490.152 171.786 491.37 171.803 492.587 171.828 493.805 171.841 501.271 171.92 508.738 171.92 516.204 171.841 517.391 171.828 518.578 171.804 519.765 171.787 522.312 171.751 524.858 171.715 527.404 171.661 528.836 171.63 530.268 171.588 531.7 171.552 533.999 171.494 536.299 171.435 538.597 171.362 540.139 171.313 541.679 171.254 543.221 171.198 545.409 171.119 547.597 171.038 549.785 170.945 551.381 170.878 552.975 170.801 554.57 170.727 556.706 170.626 558.842 170.522 560.977 170.409 562.598 170.323 564.218 170.231 565.838 170.138 567.95 170.016 570.06 169.888 572.171 169.753 573.799 169.65 575.426 169.542 577.053 169.431 579.164 169.286 581.273 169.133 583.383 168.976 584.995 168.856 586.607 168.734 588.219 168.607 588.988 168.546 589.759 168.493 590.529 168.43 590.457 168.592 590.386 168.753 590.315 168.915ZM594.56 158.416C592.957 158.554 591.354 158.684 589.75 158.815 587.987 158.959 586.225 159.108 584.46 159.242 582.432 159.397 580.402 159.536 578.372 159.679 576.629 159.803 574.886 159.931 573.142 160.045 571.083 160.18 569.021 160.298 566.961 160.42 565.243 160.522 563.526 160.631 561.807 160.724 559.705 160.838 557.602 160.936 555.499 161.037 553.82 161.118 552.141 161.207 550.462 161.28 548.295 161.374 546.128 161.449 543.961 161.531 542.342 161.591 540.723 161.66 539.104 161.713 536.827 161.787 534.548 161.842 532.27 161.901 530.76 161.94 529.25 161.989 527.74 162.022 525.211 162.077 522.682 162.111 520.152 162.147 518.891 162.165 517.63 162.194 516.369 162.208 512.579 162.249 508.789 162.27 504.998 162.27 504.989 162.27 504.98 162.27 504.971 162.27 501.19 162.27 497.409 162.249 493.628 162.208 492.349 162.194 491.071 162.165 489.793 162.146 487.282 162.109 484.77 162.076 482.259 162.022 480.731 161.989 479.205 161.939 477.678 161.899 475.418 161.84 473.157 161.786 470.897 161.713 469.262 161.659 467.628 161.59 465.993 161.529 463.842 161.449 461.69 161.374 459.54 161.28 457.846 161.207 456.154 161.117 454.461 161.036 452.372 160.934 450.282 160.838 448.194 160.725 446.465 160.631 444.737 160.521 443.008 160.419 440.958 160.297 438.908 160.18 436.859 160.046 435.107 159.931 433.358 159.802 431.607 159.679 429.584 159.536 427.561 159.398 425.539 159.243 423.771 159.108 422.006 158.959 420.24 158.815 418.638 158.684 417.037 158.555 415.436 158.417 413.059 150.102 411.855 141.491 411.855 132.773 411.855 81.4148 453.638 39.6319 504.996 39.6319 556.355 39.6319 598.137 81.4148 598.137 132.773 598.141 141.491 596.937 150.102 594.56 158.416Z"/></g></g></g><g clip-path="url(#clip4)"><g clip-path="url(#clip5)"><g clip-path="url(#clip6)"><path d="M604.75 453.912 604.75 384.438 571.667 384.438 571.667 422.483 505.5 359.625 505.5 359.625 331.812 525.042 350.422 540.756 505.5 393.535 505.5 393.535 660.578 540.756 679.188 525.042Z"/><path d="M381.438 534.553 381.438 657.375 480.688 657.375 480.688 553.99 530.312 553.99 530.312 657.375 629.562 657.375 629.562 534.553 505.5 416.694 381.438 534.553ZM455.875 603.615 406.25 603.615 406.25 553.99 455.875 553.99 455.875 603.615ZM555.125 553.99 604.75 553.99 604.75 603.615 555.125 603.615 555.125 553.99Z"/></g></g></g><text font-family="AR DESTINE,AR DESTINE_MSFontService,sans-serif" font-weight="500" font-size="160" transform="translate(662.988 243)">Wiz<tspan font-size="80" x="-78.366" y="102">Lightbulbs</tspan><tspan font-size="24" x="174.367" y="371">By JIB</tspan></text></g></svg>